<svg width="60" height="60" viewBox="0 0 60 60" fill="none" xmlns="http://www.w3.org/2000/svg">
<g filter="url(#filter0_d_272_110)">
<path d="M18.3235 21.6529C22.9197 21.6529 26.647 25.3801 26.647 29.9764C26.647 34.5726 22.9197 38.2998 18.3235 38.2998C13.7273 38.2998 10 34.5726 10 29.9764C10 25.3801 13.7273 21.6529 18.3235 21.6529ZM36.8382 41.7374C36.7167 42.2385 36.6351 42.7546 36.6351 43.2939C36.6351 46.9712 39.6166 49.9527 43.2939 49.9527C46.9712 49.9527 49.9527 46.9712 49.9527 43.2939C49.9527 39.6166 46.9712 36.6351 43.2939 36.6351C41.3545 36.6351 39.6249 37.4775 38.408 38.8009L29.2722 33.9283C28.8893 34.9871 28.3583 35.9743 27.7024 36.8649L36.8382 41.7374ZM49.9527 16.6588C49.9527 12.9815 46.9712 10 43.2939 10C39.6166 10 36.6351 12.9815 36.6351 16.6588C36.6351 17.1981 36.7167 17.7142 36.8382 18.2153L27.7024 23.0878C28.3599 23.9785 28.8893 24.964 29.2722 26.0244L38.408 21.1518C39.6249 22.4752 41.3545 23.3176 43.2939 23.3176C46.9712 23.3176 49.9527 20.3361 49.9527 16.6588Z" fill="white"/>
</g>
<defs>
<filter id="filter0_d_272_110" x="0" y="0" width="59.9526" height="59.9527" filterUnits="userSpaceOnUse" color-interpolation-filters="sRGB">
<feFlood flood-opacity="0" result="BackgroundImageFix"/>
<feColorMatrix in="SourceAlpha" type="matrix" values="0 0 0 0 0 0 0 0 0 0 0 0 0 0 0 0 0 0 127 0" result="hardAlpha"/>
<feOffset/>
<feGaussianBlur stdDeviation="5"/>
<feComposite in2="hardAlpha" operator="out"/>
<feColorMatrix type="matrix" values="0 0 0 0 0.691667 0 0 0 0 0.691667 0 0 0 0 0.691667 0 0 0 0.25 0"/>
<feBlend mode="normal" in2="BackgroundImageFix" result="effect1_dropShadow_272_110"/>
<feBlend mode="normal" in="SourceGraphic" in2="effect1_dropShadow_272_110" result="shape"/>
</filter>
</defs>
</svg>
