<svg width="47" height="47" viewBox="0 0 47 47" fill="none" xmlns="http://www.w3.org/2000/svg">
<path d="M35.25 19.5833V11.75C35.25 5.26204 29.988 0 23.5 0C17.012 0 11.75 5.26204 11.75 11.75V19.5833H5.875V47H41.125V19.5833H35.25ZM25.4583 34.7075V39.1667H21.5417V34.7075C20.3765 34.028 19.5833 32.7805 19.5833 31.3333C19.5833 29.1713 21.338 27.4167 23.5 27.4167C25.662 27.4167 27.4167 29.1713 27.4167 31.3333C27.4167 32.7786 26.6255 34.028 25.4583 34.7075ZM15.6667 19.5833V11.75C15.6667 7.42992 19.1799 3.91667 23.5 3.91667C27.8181 3.91667 31.3333 7.42992 31.3333 11.75V19.5833H15.6667Z" fill="white"/>
</svg>
